<svg xmlns="http://www.w3.org/2000/svg" viewBox="0 0 512 512" width="512" height="512">
  <defs>
    <linearGradient id="bgGrad" x1="0%" y1="0%" x2="100%" y2="100%">
      <stop offset="0%" stop-color="#1e293b" />
      <stop offset="100%" stop-color="#0f172a" />
    </linearGradient>
    <linearGradient id="windowGrad" x1="0%" y1="0%" x2="0%" y2="100%">
      <stop offset="0%" stop-color="#38bdf8" />
      <stop offset="100%" stop-color="#0284c7" />
    </linearGradient>
    <linearGradient id="cabGrad" x1="0%" y1="0%" x2="0%" y2="100%">
      <stop offset="0%" stop-color="#e2e8f0" />
      <stop offset="100%" stop-color="#94a3b8" />
    </linearGradient>
    <filter id="shadow" x="-10%" y="-10%" width="120%" height="120%">
      <feDropShadow dx="0" dy="10" stdDeviation="15" flood-opacity="0.3"/>
    </filter>
  </defs>

  <!-- Background squircle -->
  <rect x="32" y="32" width="448" height="448" rx="100" fill="url(#bgGrad)" filter="url(#shadow)" />

  <!-- Road -->
  <rect x="32" y="370" width="448" height="110" fill="#334155" opacity="0.5" />
  <rect x="64" y="420" width="60" height="8" rx="4" fill="#64748b" />
  <rect x="164" y="420" width="60" height="8" rx="4" fill="#64748b" />
  <rect x="264" y="420" width="60" height="8" rx="4" fill="#64748b" />
  <rect x="364" y="420" width="60" height="8" rx="4" fill="#64748b" />

  <g transform="translate(0, 20)">
    <!-- Trailer / Behind Cab details -->
    <!-- Air intake / Equipment -->
    <rect x="210" y="150" width="30" height="160" rx="6" fill="#475569" />
    <rect x="215" y="160" width="20" height="80" rx="4" fill="#334155" />
    <!-- Coiled cables -->
    <path d="M 210 250 C 190 260, 230 270, 210 280 C 190 290, 230 300, 210 310" fill="none" stroke="#ef4444" stroke-width="4" />
    <path d="M 215 255 C 195 265, 235 275, 215 285 C 195 295, 235 305, 215 315" fill="none" stroke="#eab308" stroke-width="4" />

    <!-- Chassis -->
    <rect x="80" y="310" width="300" height="15" rx="4" fill="#475569" />

    <!-- Fifth Wheel -->
    <path d="M 130 310 L 140 295 L 170 295 L 180 310 Z" fill="#334155" />

    <!-- Fuel Tank -->
    <rect x="260" y="315" width="60" height="30" rx="8" fill="#94a3b8" />
    <!-- Tank straps -->
    <rect x="270" y="315" width="4" height="30" fill="#1e293b" />
    <rect x="305" y="315" width="4" height="30" fill="#1e293b" />

    <!-- Cab Body -->
    <path d="M 240 350 
             L 410 350 
             C 425 350, 435 340, 435 320 
             L 435 220 
             L 415 110 
             C 410 95, 395 85, 380 85 
             L 270 85 
             C 250 85, 240 95, 240 115 
             Z" fill="url(#cabGrad)" />

    <!-- Front Bumper -->
    <path d="M 390 330 L 434 330 C 430 342, 420 350, 410 350 L 390 350 Z" fill="#475569" />

    <!-- Windshield (wrapping around the front) -->
    <path d="M 380 110 
             C 390 110, 405 110, 415 110 
             L 435 220 
             L 400 220 
             C 395 220, 390 215, 388 210 
             L 370 120 
             C 368 115, 372 110, 380 110 
             Z" fill="url(#windowGrad)" />

    <!-- Side Window -->
    <path d="M 300 130 
             L 360 130 
             C 365 130, 370 135, 372 142 
             L 385 212 
             C 386 217, 382 220, 377 220 
             L 300 220 
             C 295 220, 290 215, 290 210 
             L 290 140 
             C 290 135, 295 130, 300 130 
             Z" fill="url(#windowGrad)" />

    <!-- Door line -->
    <path d="M 280 120 L 280 320 L 390 320 L 390 220 L 400 220" stroke="#64748b" stroke-width="3" fill="none" />
    
    <!-- Door handle -->
    <rect x="295" y="235" width="20" height="6" rx="3" fill="#1e293b" />

    <!-- Main Grill Area -->
    <path d="M 405 230 
             L 435 230 
             L 435 320 
             L 395 320 
             Z" fill="#1e293b" />
    
    <!-- Grill Slats -->
    <rect x="405" y="245" width="30" height="8" rx="4" fill="#334155" />
    <rect x="403" y="265" width="32" height="8" rx="4" fill="#334155" />
    <rect x="400" y="285" width="35" height="8" rx="4" fill="#334155" />
    <rect x="397" y="305" width="38" height="8" rx="4" fill="#334155" />

    <!-- Headlight -->
    <rect x="414" y="335" width="16" height="8" rx="2" fill="#fde047" />

    <!-- Rear Fender Fill & Trim -->
    <path d="M 90 350 L 90 310 C 90 290, 110 280, 140 280 L 220 280 C 250 280, 270 290, 270 310 L 270 350 Z" fill="#0f172a" />
    <path d="M 90 350 L 90 310 C 90 290, 110 280, 140 280 L 220 280 C 250 280, 270 290, 270 310 L 270 350" fill="none" stroke="#1e293b" stroke-width="8" />

    <!-- Front Fender Fill & Trim -->
    <path d="M 310 350 L 310 310 C 310 280, 340 270, 360 270 C 380 270, 410 280, 410 310 L 410 350 Z" fill="#0f172a" />
    <path d="M 310 350 L 310 310 C 310 280, 340 270, 360 270 C 380 270, 410 280, 410 310 L 410 350" fill="none" stroke="#1e293b" stroke-width="8" />

    <!-- Rear Wheel 1 -->
    <circle cx="140" cy="350" r="36" fill="#1e293b" />
    <circle cx="140" cy="350" r="18" fill="#94a3b8" />
    <circle cx="140" cy="350" r="10" fill="#f8fafc" />
    
    <!-- Rear Wheel 2 -->
    <circle cx="220" cy="350" r="36" fill="#1e293b" />
    <circle cx="220" cy="350" r="18" fill="#94a3b8" />
    <circle cx="220" cy="350" r="10" fill="#f8fafc" />

    <!-- Front Wheel -->
    <circle cx="360" cy="350" r="36" fill="#1e293b" />
    <circle cx="360" cy="350" r="18" fill="#94a3b8" />
    <circle cx="360" cy="350" r="10" fill="#f8fafc" />
  </g>
</svg>
